# xmcd
#
# Track frame offsets: 
#        150
#        19816
#        39433
#        63233
#        76365
#        94783
#        109001
#        124063
#        140297
#        162091
#
# Disc length: 2449 seconds
#
# Revision: 9
# Processed by: cddbd v1.5.2PL0 Copyright (c) Steve Scherf et al.
# Submitted via: ExactAudioCopyFreeDBPlugin 1.0
#
DISCID=76098f0a
DTITLE=George Thorogood - Move It On Over
DYEAR=1978
DGENRE=Blues
TTITLE0=Move it on Over
TTITLE1=Who Do You Love
TTITLE2=The Sky is Crying
TTITLE3=Cocaine Blues
TTITLE4=It Wasn't Me
TTITLE5=That Same Thing
TTITLE6=So Much Trouble
TTITLE7=I'm Just Your Good Thing
TTITLE8=Baby Please Set a Date
TTITLE9=New Hawaiian Boogie
EXTD=
EXTT0=
EXTT1=
EXTT2=
EXTT3=
EXTT4=
EXTT5=
EXTT6=
EXTT7=
EXTT8=
EXTT9=
PLAYORDER=
